#!OML:ASF H:\Male1\Project 1\Capture day 1\Session 1\Male1.ASF
:FULLY-SPECIFIED
:DEGREES
593
root -1.41596 15.2272 0.385155 544.652 -80.2684 -548.957
lowerback 9.84053 2.66898 -4.79747
upperback 5.5776 2.81038 -2.89487
thorax 0.205867 1.2104 -0.576386
lowerneck -6.12723 1.78248 5.00983
upperneck 6.20761 1.72207 2.0648
head 3.09912 1.03253 -0.123873
rclavicle -2.40529e-014 1.90833e-014
rhumerus -33.5368 4.54701 -90.5381
rradius 37.9209
rwrist -17.5901
rhand -17.6586 1.52784
rfingers 7.12502
rthumb 8.59984 -28.277
lclavicle -2.40529e-014 1.90833e-014
lhumerus -25.4702 1.03473 82.2829
lradius 32.6722
lwrist 2.84025
lhand -22.1289 13.6781
lfingers 7.12502
lthumb 4.28432 43.6147
rfemur -12.115 3.19461 24.2196
rtibia 60.5669
rfoot -18.4106 -20.4145
rtoes -29.7617
lfemur -12.0368 -11.2912 -25.5545
ltibia 25.6035
lfoot -12.1207 11.3648
ltoes -2.7004
594
root -1.52064 15.2264 0.386399 544.497 -80.0451 -548.776
lowerback 9.8575 2.61479 -4.96163
upperback 5.5129 2.72147 -2.90461
thorax 0.124931 1.16497 -0.488464
lowerneck -6.10314 1.65306 4.93732
upperneck 6.17558 1.55046 2.15996
head 3.07871 0.947818 -0.0887559
rclavicle -3.79679e-014 -1.90833e-014
rhumerus -33.7783 4.62735 -90.496
rradius 38.2707
rwrist -17.9193
rhand -17.7594 1.45794
rfingers 7.12502
rthumb 8.50255 -28.3509
lclavicle -3.79679e-014 -1.90833e-014
lhumerus -24.2587 -0.709588 82.3807
lradius 34.8822
lwrist 4.40159
lhand -22.208 13.5239
lfingers 7.12502
lthumb 4.20793 43.4621
rfemur -12.969 3.57307 24.2105
rtibia 58.8957
rfoot -20.0087 -20.9858
rtoes -30.041
lfemur -11.7112 -11.0037 -25.6593
ltibia 25.8668
lfoot -12.9077 11.2238
ltoes -2.84918
595
root -1.62298 15.2204 0.386172 544.518 -79.806 -548.772
lowerback 9.85585 2.56875 -5.14898
upperback 5.44906 2.64185 -2.93381
thorax 0.0553056 1.12368 -0.407855
lowerneck -6.04215 1.49888 4.80885
upperneck 6.10866 1.34998 2.31219
head 3.03805 0.848287 -0.0271071
rclavicle -1.59028e-014 -9.54166e-015
rhumerus -33.9906 4.68063 -90.4687
rradius 38.5597
rwrist -18.19
rhand -17.8152 1.43559
rfingers 7.12502
rthumb 8.4487 -28.3754
lclavicle -1.59028e-014 -9.54166e-015
lhumerus -23.1178 -2.21805 82.2993
lradius 37.1258
lwrist 5.92912
lhand -22.2995 13.5094
lfingers 7.12502
lthumb 4.11958 43.4493
rfemur -13.6283 3.95753 24.1523
rtibia 56.857
rfoot -21.6893 -21.6907
rtoes -30.4949
lfemur -11.4579 -10.8164 -25.8005
ltibia 26.2573
lfoot -13.8219 11.154
ltoes -2.60357
596
root -1.72363 15.2089 0.384734 544.528 -79.547 -548.755
lowerback 9.81946 2.52649 -5.33512
upperback 5.38682 2.57023 -2.96585
thorax 0.00671438 1.08634 -0.33024
lowerneck -5.95207 1.33118 4.63252
upperneck 6.02589 1.13559 2.49805
head 2.98633 0.74121 0.052924
rclavicle -9.14409e-015 -4.69132e-014
rhumerus -34.1677 4.72199 -90.4522
rradius 38.7693
rwrist -18.355
rhand -17.8261 1.45943
rfingers 7.12502
rthumb 8.43815 -28.352
lclavicle -9.14409e-015 -4.69132e-014
lhumerus -22.0135 -3.48414 82.0891
lradius 39.2856
lwrist 7.43141
lhand -22.5777 13.4437
lfingers 7.12502
lthumb 3.85095 43.3886
rfemur -14.0895 4.38228 24.0898
rtibia 54.5007
rfoot -23.3842 -22.5586
rtoes -31.0916
lfemur -11.2784 -10.7003 -25.9447
ltibia 26.7847
lfoot -14.8353 11.1251
ltoes -2.10914
597
root -1.82312 15.1921 0.381613 544.204 -79.2578 -548.399
lowerback 9.71995 2.49323 -5.45453
upperback 5.3414 2.523 -2.98704
thorax 0.0116931 1.0616 -0.278181
lowerneck -5.8646 1.1535 4.42742
upperneck 5.94639 0.909115 2.69726
head 2.93696 0.627949 0.141857
rclavicle -5.1684e-015 3.02153e-014
rhumerus -34.2895 4.72703 -90.4449
rradius 38.8924
rwrist -18.4107
rhand -17.8135 1.50509
rfingers 7.12502
rthumb 8.45034 -28.3058
lclavicle -5.1684e-015 3.02153e-014
lhumerus -20.8861 -4.56431 81.7905
lradius 41.2669
lwrist 8.92897
lhand -23.0712 13.3271
lfingers 7.12502
lthumb 3.37433 43.2801
rfemur -14.3516 4.90345 24.1007
rtibia 51.8898
rfoot -25.0934 -23.4467
rtoes -31.1609
lfemur -11.1638 -10.6186 -26.0234
ltibia 27.4383
lfoot -15.9123 11.1117
ltoes -1.43759
598
root -1.92182 15.1717 0.376617 543.573 -78.9359 -547.73
lowerback 9.55848 2.47167 -5.49991
upperback 5.30303 2.50441 -2.99868
thorax 0.0593806 1.05218 -0.257783
lowerneck -5.79541 0.969059 4.21507
upperneck 5.90606 0.672115 2.888
head 2.90571 0.510021 0.229275
rclavicle 1.49089e-014 -8.74653e-015
rhumerus -34.3806 4.69174 -90.4521
rradius 38.9364
rwrist -18.3939
rhand -17.8028 1.53592
rfingers 7.12502
rthumb 8.46062 -28.2746
lclavicle 1.49089e-014 -8.74653e-015
lhumerus -19.7437 -5.48325 81.4315
lradius 43.0255
lwrist 10.3555
lhand -23.6784 13.041
lfingers 7.12502
lthumb 2.78797 43.0025
rfemur -14.441 5.56033 24.1839
rtibia 49.1184
rfoot -26.7246 -24.2667
rtoes -30.5163
lfemur -11.0974 -10.5519 -26.0356
ltibia 28.1755
lfoot -16.9601 11.1236
ltoes -0.816183
599
root -2.01973 15.1513 0.370428 542.888 -78.6112 -546.997
lowerback 9.35742 2.45258 -5.48798
upperback 5.25024 2.49788 -3.01656
thorax 0.115785 1.05075 -0.275627
lowerneck -5.75437 0.778615 4.01195
upperneck 5.94515 0.422604 3.05783
head 2.90822 0.38741 0.308509
rclavicle 3.97569e-014 5.56597e-015
rhumerus -34.4781 4.62113 -90.4854
rradius 38.9062
rwrist -18.3486
rhand -17.8028 1.51347
rfingers 7.12502
rthumb 8.46062 -28.2971
lclavicle 3.97569e-014 5.56597e-015
lhumerus -18.6429 -6.22427 81.0312
lradius 44.5808
lwrist 11.5419
lhand -24.0824 12.5572
lfingers 7.12502
lthumb 2.39775 42.5235
rfemur -14.4016 6.32384 24.2788
rtibia 46.3181
rfoot -28.3086 -24.824
rtoes -28.6798
lfemur -11.0559 -10.5106 -26.0326
ltibia 28.935
lfoot -17.8824 11.1868
ltoes -0.479365
600
root -2.11558 15.1335 0.363113 542.29 -78.2764 -546.341
lowerback 9.09062 2.43827 -5.4444
upperback 5.20472 2.50618 -3.04538
thorax 0.217087 1.05674 -0.321167
lowerneck -5.77866 0.585423 3.80113
upperneck 6.05989 0.163695 3.21879
head 2.95016 0.262049 0.386584
rclavicle 1.35174e-014 -1.27222e-014
rhumerus -34.5399 4.5307 -90.5417
rradius 38.7995
rwrist -18.3047
rhand -17.8037 1.44566
rfingers 7.12502
rthumb 8.45978 -28.3649
lclavicle 1.35174e-014 -1.27222e-014
lhumerus -17.584 -6.74127 80.6138
lradius 45.9553
lwrist 12.1598
lhand -23.9484 11.9232
lfingers 7.12502
lthumb 2.52719 41.8879
rfemur -14.2647 7.19187 24.3569
rtibia 43.6505
rfoot -29.4815 -25.0682
rtoes -26.0625
lfemur -11.0103 -10.5048 -26.0436
ltibia 29.6368
lfoot -18.6346 11.3484
ltoes -0.4076
601
root -2.20764 15.1188 0.355817 541.897 -77.9315 -545.883
lowerback 8.79615 2.42499 -5.39241
upperback 5.14836 2.51843 -3.08733
thorax 0.32329 1.06537 -0.384395
lowerneck -5.84933 0.393153 3.56795
upperneck 6.24441 -0.0975337 3.37757
head 3.02613 0.137037 0.468295
rclavicle 8.15017e-015 -3.26007e-014
rhumerus -34.5984 4.45734 -90.6238
rradius 38.631
rwrist -18.2808
rhand -17.787 1.3718
rfingers 7.12502
rthumb 8.47585 -28.4381
lclavicle 8.15017e-015 -3.26007e-014
lhumerus -16.6387 -6.99556 80.2117
lradius 47.1784
lwrist 11.9311
lhand -23.0467 11.1598
lfingers 7.12502
lthumb 3.39803 41.1124
rfemur -14.0404 8.10252 24.3915
rtibia 41.2867
rfoot -30.1118 -25.0531
rtoes -22.8953
lfemur -10.9328 -10.539 -26.1012
ltibia 30.216
lfoot -19.2225 11.6337
ltoes -0.501334
602
root -2.29429 15.1083 0.349457 541.745 -77.5646 -545.668
lowerback 8.50749 2.41587 -5.34903
upperback 5.07361 2.53408 -3.14197
thorax 0.407594 1.07645 -0.456691
lowerneck -5.94133 0.202369 3.31618
upperneck 6.47379 -0.357601 3.52793
head 3.12318 0.0131021 0.550849
rclavicle -2.36554e-014 -1.43125e-014
rhumerus -34.6682 4.41829 -90.7288
rradius 38.4125
rwrist -18.2791
rhand -17.7295 1.32076
rfingers 7.12502
rthumb 8.53142 -28.4869
lclavicle -2.36554e-014 -1.43125e-014
lhumerus -15.8485 -7.01812 79.8588
lradius 48.2484
lwrist 10.7551
lhand -21.4183 10.2332
lfingers 7.12502
lthumb 4.97048 40.1549
rfemur -13.7337 9.01862 24.3798
rtibia 39.3538
rfoot -30.2341 -24.9311
rtoes -19.7595
lfemur -10.8047 -10.5833 -26.2187
ltibia 30.6481
lfoot -19.705 12.0015
ltoes -0.577555
603
root -2.3744 15.1025 0.34445 541.751 -77.1696 -545.622
lowerback 8.24244 2.41678 -5.30366
upperback 4.98959 2.56029 -3.20283
thorax 0.469631 1.09335 -0.538325
lowerneck -6.03927 0.00675281 3.04036
upperneck 6.70978 -0.622107 3.67496
head 3.22549 -0.113552 0.63634
rclavicle 6.16232e-015 -5.40694e-014
rhumerus -34.7309 4.38704 -90.8343
rradius 38.1533
rwrist -18.2834
rhand -17.6131 1.30763
rfingers 7.12502
rthumb 8.64368 -28.4954
lclavicle 6.16232e-015 -5.40694e-014
lhumerus -15.2063 -6.90729 79.5862
lradius 49.1733
lwrist 8.82802
lhand -19.3068 9.25037
lfingers 7.12502
lthumb 7.00903 39.1143
rfemur -13.3573 9.88713 24.3431
rtibia 37.9044
rfoot -29.8797 -24.8862
rtoes -17.1973
lfemur -10.6236 -10.6013 -26.3772
ltibia 30.9446
lfoot -20.1452 12.3732
ltoes -0.413801
604
root -2.44787 15.1004 0.340513 541.68 -76.7448 -545.516
lowerback 8.02753 2.42337 -5.24011
upperback 4.8959 2.59117 -3.24078
thorax 0.493828 1.11369 -0.608641
lowerneck -6.09913 -0.190594 2.74324
upperneck 6.9121 -0.881647 3.80326
head 3.31056 -0.24014 0.71939
rclavicle -3.24019e-014 -7.95139e-015
rhumerus -34.7824 4.36743 -90.9188
rradius 37.8579
rwrist -18.2736
rhand -17.4344 1.30707
rfingers 7.12502
rthumb 8.81618 -28.4888
lclavicle -3.24019e-014 -7.95139e-015
lhumerus -14.7373 -6.75382 79.4208
lradius 49.9588
lwrist 6.57784
lhand -17.2065 8.19271
lfingers 7.12502
lthumb 9.03609 37.9792
rfemur -12.914 10.6304 24.3396
rtibia 36.8892
rfoot -29.1381 -25.0438
rtoes -15.9854
lfemur -10.3954 -10.5821 -26.5188
ltibia 31.1407
lfoot -20.56 12.7225
ltoes -0.0706944
605
root -2.51571 15.1005 0.33674 541.416 -76.3009 -545.235
lowerback 7.83451 2.43119 -5.1452
upperback 4.82152 2.62491 -3.24622
thorax 0.525924 1.1353 -0.663313
lowerneck -6.13867 -0.389776 2.45909
upperneck 7.05905 -1.13706 3.88869
head 3.37359 -0.367299 0.785938
rclavicle 5.00937e-014 1.27222e-014
rhumerus -34.7711 4.33313 -90.9733
rradius 37.5207
rwrist -18.2184
rhand -17.2053 1.27105
rfingers 7.12502
rthumb 9.03719 -28.5154
lclavicle 5.00937e-014 1.27222e-014
lhumerus -14.4137 -6.67297 79.3637
lradius 50.6092
lwrist 4.53463
lhand -15.6754 7.21403
lfingers 7.12502
lthumb 10.5133 36.9311
rfemur -12.4142 11.1965 24.3985
rtibia 36.1916
rfoot -28.3629 -25.2161
rtoes -15.5248
lfemur -10.1378 -10.5586 -26.612
ltibia 31.2818
lfoot -20.9602 13.0734
ltoes 0.304712
606
root -2.57969 15.1018 0.332304 540.782 -75.8527 -544.597
lowerback 7.64308 2.43046 -4.98549
upperback 4.77735 2.6534 -3.20181
thorax 0.589111 1.15444 -0.701371
lowerneck -6.18961 -0.587605 2.21236
upperneck 7.1724 -1.38688 3.91225
head 3.42735 -0.493486 0.825562
rclavicle 3.99557e-014 2.54444e-014
rhumerus -34.6875 4.27762 -90.9878
rradius 37.155
rwrist -18.0937
rhand -16.9428 1.17646
rfingers 7.12502
rthumb 9.29049 -28.5988
lclavicle 3.99557e-014 2.54444e-014
lhumerus -14.2368 -6.73326 79.4176
lradius 51.116
lwrist 3.11772
lhand -15.0015 6.55082
lfingers 7.12502
lthumb 11.1633 36.2339
rfemur -11.8732 11.6099 24.5675
rtibia 35.6729
rfoot -27.7334 -25.3775
rtoes -15.6275
lfemur -9.85953 -10.6027 -26.6113
ltibia 31.4033
lfoot -21.3839 13.4805
ltoes 0.710315
